<svg xmlns="http://www.w3.org/2000/svg" version="1.1" xmlns:xlink="http://www.w3.org/1999/xlink" xmlns:svgjs="http://svgjs.com/svgjs" width="512" height="512" x="0" y="0" viewBox="0 0 512 512" style="enable-background:new 0 0 512 512" xml:space="preserve" class=""><g><g><g><path d="m381.38 65.435c-42.195-42.197-98.297-65.435-157.972-65.435-.117 0-.232.004-.348.004l-10.001 223.404 10.001 223.404c.116 0 .232.004.348.004 59.675 0 115.777-23.238 157.973-65.435 42.196-42.196 65.435-98.299 65.435-157.973s-23.239-115.777-65.436-157.973z" fill="#a6dfff" data-original="#a6dfff" class=""></path><path d="m65.435 65.435c-42.197 42.196-65.435 98.298-65.435 157.973s23.238 115.777 65.434 157.973c42.114 42.114 98.08 65.34 157.625 65.43v-446.807c-59.544.091-115.511 23.317-157.624 65.431z" fill="#c6eaff" data-original="#c6eaff" class=""></path></g><g><path d="m288.466 107.883c-26.689 0-50.35 12.946-65.058 32.898-.114-.155-.233-.305-.348-.459l-10.001 96.921 10.001 129.359c.221.211.348.332.348.332s88.541-84.226 121.5-120.488c15.014-14.667 24.335-35.138 24.335-57.786 0-44.611-36.165-80.777-80.777-80.777z" fill="#bd0000" data-original="#bd0000" class="" style="
"></path><path d="m158.349 107.883c-44.612 0-80.777 36.165-80.777 80.777 0 22.648 9.321 43.119 24.335 57.786 31.776 34.961 115.202 114.491 121.152 120.156v-226.28c-14.731-19.689-38.228-32.439-64.71-32.439z" fill="#e70000" data-original="#e70000" class="" style="
"></path></g><g><path d="m450.545 381.44v-61.456h-34.553l-10.001 96.008 10.001 96.008h34.553v-61.455h61.455v-69.105z" fill="#00bb01" data-original="#00bb01" class="" style="
"></path><path d="m381.439 319.984v61.456h-61.455v69.105h61.455v61.455h34.553v-192.016z" fill="#00dd1f" data-original="#00dd1f" class="" style="
"></path></g></g></g></svg>