<svg xmlns="http://www.w3.org/2000/svg" version="1.1" xmlns:xlink="http://www.w3.org/1999/xlink" xmlns:svgjs="http://svgjs.com/svgjs" width="512" height="512" x="0" y="0" viewBox="0 0 512.001 512" style="enable-background:new 0 0 512 512" xml:space="preserve" class=""><g><path d="m130.894531 493.109375h-78.066406l21.960937-359.367187h34.144532zm0 0" fill="#ffe285" data-original="#ffe285"></path><path d="m121.785156 182.632812h-59.847656c-4.886719 0-8.847656-3.960937-8.847656-8.851562v-21.476562c0-4.886719 3.960937-8.851563 8.847656-8.851563h59.84375c4.890625 0 8.851562 3.964844 8.851562 8.851563v21.476562c0 4.890625-3.960937 8.851562-8.847656 8.851562zm0 0" fill="#fcb038" data-original="#fcb038"></path><path d="m135.976562 458.0625h-88.230468c-4.886719 0-8.847656-3.960938-8.847656-8.847656v-21.476563c0-4.890625 3.960937-8.851562 8.847656-8.851562h88.230468c4.886719 0 8.847657 3.960937 8.847657 8.851562v21.476563c0 4.886718-3.960938 8.847656-8.847657 8.847656zm0 0" fill="#fcb038" data-original="#fcb038"></path><path d="m295.035156 493.109375h-78.070312l21.964844-359.367187h34.140624zm0 0" fill="#ffe285" data-original="#ffe285"></path><path d="m285.921875 182.632812h-59.84375c-4.886719 0-8.851563-3.960937-8.851563-8.851562v-21.476562c0-4.886719 3.964844-8.851563 8.851563-8.851563h59.84375c4.886719 0 8.851563 3.964844 8.851563 8.851563v21.476562c0 4.890625-3.964844 8.851562-8.851563 8.851562zm0 0" fill="#fcb038" data-original="#fcb038"></path><path d="m300.113281 458.0625h-88.226562c-4.890625 0-8.851563-3.960938-8.851563-8.847656v-21.476563c0-4.890625 3.960938-8.851562 8.851563-8.851562h88.226562c4.890625 0 8.851563 3.960937 8.851563 8.851562v21.476563c0 4.886718-3.960938 8.847656-8.851563 8.847656zm0 0" fill="#fcb038" data-original="#fcb038"></path><path d="m459.171875 493.109375h-78.066406l21.960937-359.367187h34.144532zm0 0" fill="#ffe285" data-original="#ffe285"></path><path d="m450.0625 182.632812h-59.84375c-4.890625 0-8.851562-3.960937-8.851562-8.851562v-21.476562c0-4.886719 3.960937-8.851563 8.851562-8.851563h59.84375c4.886719 0 8.847656 3.964844 8.847656 8.851563v21.476562c0 4.890625-3.960937 8.851562-8.847656 8.851562zm0 0" fill="#fcb038" data-original="#fcb038"></path><g fill="#fd8f31"><path d="m450.0625 143.453125h-49.503906v39.179687h49.503906c4.886719 0 8.847656-3.960937 8.847656-8.851562v-21.476562c0-4.886719-3.960937-8.851563-8.847656-8.851563zm0 0" fill="#fd8f31" data-original="#fd8f31"></path><path d="m286.183594 143.453125h-49.503906v39.179687h49.503906c4.886718 0 8.851562-3.960937 8.851562-8.851562v-21.476562c0-4.886719-3.964844-8.851563-8.851562-8.851563zm0 0" fill="#fd8f31" data-original="#fd8f31"></path><path d="m121.785156 143.453125h-49.503906v39.179687h49.5c4.890625 0 8.851562-3.960937 8.851562-8.851562v-21.476562c0-4.886719-3.960937-8.851563-8.847656-8.851563zm0 0" fill="#fd8f31" data-original="#fd8f31"></path></g><path d="m464.253906 458.0625h-88.230468c-4.886719 0-8.847657-3.960938-8.847657-8.847656v-21.476563c0-4.890625 3.960938-8.851562 8.847657-8.851562h88.230468c4.886719 0 8.847656 3.960937 8.847656 8.851562v21.476563c0 4.886718-3.960937 8.847656-8.847656 8.847656zm0 0" fill="#fcb038" data-original="#fcb038"></path><path d="m464.253906 418.886719h-49.359375v39.175781h49.359375c4.886719 0 8.847656-3.960938 8.847656-8.847656v-21.476563c0-4.890625-3.960937-8.851562-8.847656-8.851562zm0 0" fill="#fd8f31" data-original="#fd8f31"></path><path d="m300.113281 418.886719h-49.359375v39.175781h49.359375c4.890625 0 8.851563-3.960938 8.851563-8.847656v-21.476563c0-4.890625-3.960938-8.851562-8.851563-8.851562zm0 0" fill="#fd8f31" data-original="#fd8f31"></path><path d="m135.976562 418.886719h-49.363281v39.175781h49.363281c4.886719 0 8.847657-3.960938 8.847657-8.847656v-21.476563c0-4.890625-3.960938-8.851562-8.847657-8.851562zm0 0" fill="#fd8f31" data-original="#fd8f31"></path><path d="m498.234375 499.355469h-484.46875c-7.601563 0-13.765625-6.164063-13.765625-13.765625v-13.753906c0-7.601563 6.164062-13.765626 13.765625-13.765626h484.46875c7.601563 0 13.765625 6.164063 13.765625 13.765626v13.753906c0 7.601562-6.164062 13.765625-13.765625 13.765625zm0 0" fill="#ffe285" data-original="#ffe285"></path><path d="m498.234375 458.070312h-44.589844v41.285157h44.589844c7.601563 0 13.765625-6.164063 13.765625-13.765625v-13.753906c0-7.601563-6.164062-13.765626-13.765625-13.765626zm0 0" fill="#efcd6f" data-original="#efcd6f"></path><path d="m512 102.171875-252.039062-101.40625c-2.542969-1.019531-5.378907-1.019531-7.921876 0l-252.039062 101.40625v27.652344c0 .351562.0234375.695312.0585938 1.035156.5937502 7.054687 6.5000002 12.59375 13.7070312 12.59375h484.46875c7.207031 0 13.113281-5.539063 13.707031-12.59375.035156-.339844.058594-.683594.058594-1.035156zm0 0" fill="#fd8f31" data-original="#fd8f31"></path><path d="m512 102.171875-252.039062-101.40625c-2.542969-1.019531-5.378907-1.019531-7.921876 0l-73.726562 29.664063 277.792969 113.023437h42.128906c7.210937 0 13.113281-5.539063 13.707031-12.59375.039063-.339844.058594-.683594.058594-1.035156zm0 0" fill="#f4832f" data-original="#f4832f"></path><path d="m498.234375 143.453125h-484.46875c-7.601563 0-13.765625-6.160156-13.765625-13.761719v-27.519531h512v27.519531c0 7.601563-6.164062 13.761719-13.765625 13.761719zm0 0" fill="#ffe285" data-original="#ffe285"></path><path d="m453.644531 102.171875v41.285156h44.589844c7.601563 0 13.765625-6.164062 13.765625-13.765625v-27.515625h-58.355469zm0 0" fill="#efcd6f" data-original="#efcd6f"></path></g></svg>