<svg xmlns="http://www.w3.org/2000/svg" version="1.1" xmlns:xlink="http://www.w3.org/1999/xlink" xmlns:svgjs="http://svgjs.com/svgjs" width="512" height="512" x="0" y="0" viewBox="0 0 60 60" style="enable-background:new 0 0 512 512" xml:space="preserve" class=""><g><g id="Icons"><path d="m38 31.32v-25.32a5 5 0 0 0 -5-5h-6a5 5 0 0 0 -5 5v25.32z" fill="#90bae1" data-original="#90bae1"></path><path d="m45 44a15 15 0 1 1 -19-14.46c.21-.06.41-.11.62-.15l.01-.01a15 15 0 0 1 18.37 14.62z" fill="#b0d3f0" data-original="#b0d3f0" class=""></path><path d="m34 16v6l-7.37 7.38-.01.01c-.21.04-.41.09-.62.15v-5.54z" fill="#2980ba" data-original="#2980ba"></path><path d="m34 10v6l-8 8v-6z" fill="#3b97d3" data-original="#3b97d3"></path><path d="m34 6v4l-8 8v-6l7-7a1 1 0 0 1 1 1z" fill="#2980ba" data-original="#2980ba"></path><path d="m33 5-7 7v-6a1 1 0 0 1 1-1z" fill="#3b97d3" data-original="#3b97d3"></path><path d="m34 22v7.54a15.107 15.107 0 0 0 -7.37-.16z" fill="#3b97d3" data-original="#3b97d3"></path><g fill="#285680"><path d="m29.573 38.181a1 1 0 0 0 -1.392.246l-2.681 3.829-2.681-3.829a1 1 0 1 0 -1.638 1.146l3.098 4.427-3.1 4.427a1 1 0 1 0 1.638 1.146l2.683-3.829 2.681 3.829a1 1 0 1 0 1.638-1.146l-3.098-4.427 3.1-4.427a1 1 0 0 0 -.248-1.392z" fill="#285680" data-original="#285680" class=""></path><path d="m36 38h-3a1 1 0 0 0 -1 1v10a1 1 0 0 0 2 0v-3h2a4 4 0 0 0 0-8zm0 6h-2v-4h2a2 2 0 0 1 0 4z" fill="#285680" data-original="#285680" class=""></path></g></g></g></svg>